<?xml version="1.0" encoding="UTF-8" standalone="no"?>
<svg
   width="203.2mm"
   height="128.5mm"
   viewBox="0 0 203.2 128.5"
   version="1.1"
   id="svg43"
   sodipodi:docname="Seqhub.svg"
   inkscape:version="1.4.3 (0d15f75, 2025-12-25)"
   xml:space="preserve"
   xmlns:inkscape="http://www.inkscape.org/namespaces/inkscape"
   xmlns:sodipodi="http://sodipodi.sourceforge.net/DTD/sodipodi-0.dtd"
   xmlns="http://www.w3.org/2000/svg"
   xmlns:svg="http://www.w3.org/2000/svg"><defs
     id="defs1" /><sodipodi:namedview
     id="namedview43"
     pagecolor="#ffffff"
     bordercolor="#000000"
     borderopacity="0.25"
     inkscape:showpageshadow="2"
     inkscape:pageopacity="0.0"
     inkscape:pagecheckerboard="0"
     inkscape:deskcolor="#d1d1d1"
     inkscape:document-units="mm"
     inkscape:lockguides="true"
     inkscape:zoom="3.6484376"
     inkscape:cx="410.58672"
     inkscape:cy="490.62098"
     inkscape:window-width="3840"
     inkscape:window-height="2054"
     inkscape:window-x="-11"
     inkscape:window-y="-11"
     inkscape:window-maximized="1"
     inkscape:current-layer="svg43" /><path
     id="background"
     style="fill:#0d1117;stroke-width:0.999998"
     d="M 0,128.5 1.5813229e-6,0 203.2,6.3238192e-7 V 128.5 Z" /><path
     d="M 5.7947847,5.0434761 V 4.9020267 H 6.351307 q 0.1715943,0 0.2434785,0.067246 0.074203,0.064928 0.074203,0.1715944 0,0.1043479 -0.074203,0.1715943 -0.071884,0.064928 -0.2434785,0.064928 h -0.08116 v 1.7298568 q 0,0.250435 -0.1066668,0.4359424 Q 6.0591328,7.7310149 5.8411615,7.8655078 5.6231903,8.0000007 5.3495669,8.0000007 H 4.8115953 q -0.1715943,0 -0.2457973,-0.067246 -0.071884,-0.064928 -0.071884,-0.1692755 0,-0.1066668 0.071884,-0.1739132 0.074203,-0.064928 0.2457973,-0.064928 h 0.5240585 q 0.2179712,0 0.3385511,-0.118261 0.1205798,-0.118261 0.1205798,-0.2991307 V 6.8753619 Q 5.6371034,6.977391 5.4724655,7.0284055 q -0.162319,0.051015 -0.3339133,0.051015 -0.4846382,0 -0.811595,-0.3223192 -0.3269568,-0.324638 -0.3269568,-0.8000008 0,-0.4776816 0.3269568,-0.8000007 0.3269568,-0.324638 0.811595,-0.324638 0.1808697,0 0.3431887,0.053333 0.1646378,0.051014 0.3130438,0.1576813 z m -0.00232,0.9113052 q 0,-0.2620292 -0.1947828,-0.4544932 -0.1924639,-0.1924639 -0.4637685,-0.1924639 -0.2713046,0 -0.4660874,0.1924639 -0.192464,0.192464 -0.192464,0.4544932 0,0.2643481 0.192464,0.456812 0.1947828,0.1901451 0.4660874,0.1901451 0.2713046,0 0.4637685,-0.1901451 0.1947828,-0.1924639 0.1947828,-0.456812 z M 8.2921784,3.9999968 V 4.5031857 H 7.7263807 V 3.9999968 Z m 0.064928,0.9020299 v 1.6301465 h 0.5704353 q 0.1715944,0 0.2434785,0.067246 0.074203,0.064928 0.074203,0.1715944 0,0.1043479 -0.074203,0.1715943 -0.071884,0.064928 -0.2434785,0.064928 H 7.3113079 q -0.1715944,0 -0.2457974,-0.064928 -0.071884,-0.067246 -0.071884,-0.1739132 0,-0.1043479 0.071884,-0.1692755 0.074203,-0.067246 0.2457974,-0.067246 H 7.8817432 V 5.3773894 H 7.4991341 q -0.1692755,0 -0.2434784,-0.064928 -0.074203,-0.067246 -0.074203,-0.1739132 0,-0.1043479 0.071884,-0.1692755 0.074203,-0.067246 0.2457973,-0.067246 z M 10.8545,5.3773894 v 0.9530444 q 0,0.1530437 0.06261,0.2017394 0.09739,0.076522 0.347827,0.076522 0.364058,0 0.672464,-0.1553625 0.118261,-0.06029 0.185508,-0.06029 0.09275,0 0.16,0.069565 0.06957,0.069565 0.06957,0.1692755 0,0.092754 -0.0742,0.1600002 -0.113623,0.1089856 -0.449855,0.2017393 -0.333914,0.090435 -0.563479,0.090435 -0.442899,0 -0.665508,-0.1901451 -0.22029,-0.1924639 -0.22029,-0.4707251 V 5.3773894 h -0.171594 q -0.171595,0 -0.2457978,-0.064928 -0.071884,-0.067246 -0.071884,-0.1739132 0,-0.1043479 0.071884,-0.1692755 0.074203,-0.067246 0.2457978,-0.067246 h 0.171594 V 4.4730408 q 0,-0.1715944 0.06493,-0.2434785 0.06725,-0.074203 0.173913,-0.074203 0.104348,0 0.169275,0.074203 0.06725,0.071884 0.06725,0.2434785 v 0.4289859 h 0.878841 q 0.171594,0 0.243479,0.067246 0.0742,0.064928 0.0742,0.1715944 0,0.1043479 -0.0742,0.1715943 -0.07188,0.064928 -0.243479,0.064928 z m 6.054498,-1.3773926 v 2.5321764 h 0.570436 q 0.171594,0 0.243478,0.067246 0.0742,0.064928 0.0742,0.1715944 0,0.1043479 -0.0742,0.1715943 -0.07188,0.064928 -0.243478,0.064928 H 15.8632 q -0.171594,0 -0.245797,-0.064928 -0.07188,-0.067246 -0.07188,-0.1739132 0,-0.1043479 0.07188,-0.1692755 0.0742,-0.067246 0.245797,-0.067246 h 0.570435 V 4.4753596 h -0.382609 q -0.169275,0 -0.243478,-0.064928 -0.0742,-0.067246 -0.0742,-0.1739132 0,-0.1043479 0.07188,-0.1692755 0.0742,-0.067247 0.245797,-0.067247 z m 3.84696,1.9942048 q 0,0.2736235 -0.153044,0.531015 -0.150724,0.2550727 -0.452174,0.4081164 -0.299131,0.1507247 -0.626088,0.1507247 -0.324638,0 -0.621449,-0.1484059 Q 18.606391,6.784927 18.451028,6.5275355 18.295666,6.2701439 18.295666,5.9895639 q 0,-0.2852176 0.157681,-0.5588411 0.157681,-0.2759423 0.452174,-0.4336236 0.296812,-0.1576813 0.619131,-0.1576813 0.324638,0 0.623769,0.162319 0.30145,0.1600002 0.454493,0.4336236 0.153044,0.2713046 0.153044,0.5588411 z m -0.475363,0.00232 q 0,-0.2295655 -0.164638,-0.4220294 -0.224927,-0.2597104 -0.591305,-0.2597104 -0.322319,0 -0.537971,0.206377 -0.215652,0.206377 -0.215652,0.4776816 0,0.2226089 0.217971,0.4173917 0.217971,0.192464 0.535652,0.192464 0.320001,0 0.537972,-0.192464 0.217971,-0.1947828 0.217971,-0.4197105 z M 22.893932,5.0434761 V 4.9020267 h 0.556523 q 0.171594,0 0.243478,0.067246 0.0742,0.064928 0.0742,0.1715944 0,0.1043479 -0.0742,0.1715943 -0.07188,0.064928 -0.243478,0.064928 h -0.08116 v 1.7298568 q 0,0.250435 -0.106667,0.4359424 -0.104347,0.1878263 -0.322319,0.3223192 -0.217971,0.1344929 -0.491594,0.1344929 h -0.537972 q -0.171594,0 -0.245797,-0.067246 -0.07188,-0.064928 -0.07188,-0.1692755 0,-0.1066668 0.07188,-0.1739132 0.0742,-0.064928 0.245797,-0.064928 h 0.524059 q 0.217971,0 0.338551,-0.118261 0.120579,-0.118261 0.120579,-0.2991307 V 6.8753619 q -0.157681,0.1020291 -0.322319,0.1530436 -0.162319,0.051015 -0.333913,0.051015 -0.484638,0 -0.811595,-0.3223192 -0.326957,-0.324638 -0.326957,-0.8000008 0,-0.4776816 0.326957,-0.8000007 0.326957,-0.324638 0.811595,-0.324638 0.18087,0 0.343189,0.053333 0.164638,0.051014 0.313043,0.1576813 z m -0.0023,0.9113052 q 0,-0.2620292 -0.194783,-0.4544932 -0.192464,-0.1924639 -0.463769,-0.1924639 -0.271304,0 -0.466087,0.1924639 -0.192464,0.192464 -0.192464,0.4544932 0,0.2643481 0.192464,0.456812 0.194783,0.1901451 0.466087,0.1901451 0.271305,0 0.463769,-0.1901451 0.194783,-0.1924639 0.194783,-0.456812 z m 6.175077,-0.078841 H 27.081762 V 5.442317 h 1.984929 z m 2.849857,0 H 29.931619 V 5.442317 h 1.984929 z m 2.367538,-0.4173917 q -0.115942,-0.071884 -0.243478,-0.1066667 -0.127536,-0.037102 -0.266667,-0.037102 -0.275942,0 -0.438261,0.090435 -0.07188,0.03942 -0.07188,0.085797 0,0.053333 0.09739,0.104348 0.0742,0.037102 0.331595,0.071884 0.473043,0.064928 0.658551,0.1298552 0.243478,0.085797 0.375652,0.2550727 0.132174,0.1692755 0.132174,0.3571018 0,0.2550727 -0.224927,0.4266671 -0.322319,0.2481161 -0.837103,0.2481161 -0.206377,0 -0.382609,-0.037101 -0.173913,-0.034783 -0.32,-0.104348 -0.03478,0.030145 -0.0742,0.046377 -0.03942,0.016232 -0.08116,0.016232 -0.111305,0 -0.178551,-0.071884 -0.06493,-0.074203 -0.06493,-0.2457974 V 6.5275355 q 0,-0.1715944 0.06493,-0.2434785 0.06725,-0.074203 0.173913,-0.074203 0.0858,0 0.143768,0.048696 0.05797,0.046377 0.09043,0.162319 0.108986,0.092754 0.262029,0.1414494 0.153044,0.046377 0.352464,0.046377 0.326957,0 0.507827,-0.1020291 0.0858,-0.051015 0.0858,-0.1066668 0,-0.092754 -0.122899,-0.1530436 -0.122898,-0.06029 -0.507826,-0.1020291 -0.572754,-0.06029 -0.765218,-0.2318843 -0.192464,-0.1692755 -0.192464,-0.4173917 0,-0.2550727 0.215652,-0.4243482 0.292174,-0.2318843 0.765218,-0.2318843 0.164638,0 0.315363,0.032464 0.153044,0.030145 0.292174,0.095073 0.04406,-0.032464 0.08116,-0.048696 0.03942,-0.016232 0.07188,-0.016232 0.09739,0 0.162319,0.074203 0.06493,0.071884 0.06493,0.2434785 v 0.1159422 q 0,0.1553624 -0.0371,0.2110147 -0.0742,0.1066667 -0.201739,0.1066667 -0.0858,0 -0.150725,-0.053333 -0.06493,-0.053333 -0.08348,-0.1414495 z M 37.813367,6.195941 H 35.86322 q 0.0742,0.1855074 0.262029,0.2991307 0.190145,0.1136233 0.512464,0.1136233 0.264348,0 0.70261,-0.1136233 0.180869,-0.046377 0.250435,-0.046377 0.09507,0 0.16,0.067246 0.06493,0.067246 0.06493,0.1692755 0,0.092754 -0.06957,0.1576813 -0.09275,0.085797 -0.452174,0.1646378 -0.359421,0.076522 -0.691015,0.076522 -0.570436,0 -0.913624,-0.3223191 -0.34087,-0.3223192 -0.34087,-0.7930442 0,-0.5008701 0.368696,-0.8139139 0.371015,-0.3153626 0.853334,-0.3153626 0.289855,0 0.531015,0.1020291 0.243478,0.1020291 0.361739,0.2202901 0.166957,0.1715943 0.275943,0.4243482 0.0742,0.176232 0.0742,0.4081163 z M 37.286989,5.7205782 Q 37.178004,5.51652 37.001772,5.4168098 36.82554,5.3147807 36.582061,5.3147807 q -0.24116,0 -0.417392,0.1020291 -0.176232,0.09971 -0.287536,0.3037684 z m 3.285802,-0.3431888 v 2.1472485 h 0.08348 q 0.169276,0 0.24116,0.064928 0.0742,0.067246 0.0742,0.1739132 0,0.1043479 -0.07188,0.1692755 -0.07188,0.067246 -0.243479,0.067246 h -0.84174 q -0.171594,0 -0.245797,-0.067246 -0.07188,-0.064928 -0.07188,-0.1692755 0,-0.1066668 0.07188,-0.1739132 0.0742,-0.064928 0.245797,-0.064928 h 0.282899 V 6.7455067 q -0.173913,0.1066668 -0.354783,0.1600002 -0.178551,0.053333 -0.361739,0.053333 -0.424348,0 -0.7629,-0.2550727 -0.405797,-0.3060872 -0.405797,-0.7768123 0,-0.4266671 0.343189,-0.7559428 0.343188,-0.3315945 0.832464,-0.3315945 0.187827,0 0.364059,0.055652 0.178551,0.055652 0.345507,0.1692756 v -0.162319 h 0.558841 q 0.169276,0 0.24116,0.067246 0.0742,0.064928 0.0742,0.1715944 0,0.1043479 -0.07188,0.1715943 -0.07188,0.064928 -0.243479,0.064928 z M 40.097428,5.929274 q 0,-0.09971 -0.07884,-0.2527538 Q 39.939747,5.5211577 39.775109,5.4191286 39.610471,5.3147807 39.3925,5.3147807 q -0.357102,0 -0.563479,0.2666669 -0.141449,0.1831886 -0.141449,0.3524641 0,0.192464 0.201739,0.3710149 0.204058,0.1785509 0.503189,0.1785509 0.30145,0 0.503189,-0.1785509 0.201739,-0.1785509 0.201739,-0.3756526 z m 3.232467,-1.0272473 v 1.6301465 q 0.150724,0 0.222609,0.067246 0.07188,0.067246 0.07188,0.1715944 0,0.1043479 -0.0742,0.1715943 -0.07188,0.064928 -0.243479,0.064928 H 42.854532 V 6.8985503 q -0.204058,0.092754 -0.389566,0.1391306 -0.185507,0.046377 -0.352464,0.046377 -0.234203,0 -0.405797,-0.097391 Q 41.53511,6.8869561 41.4354,6.7130429 41.363516,6.5878254 41.363516,6.3999991 V 5.3773894 h -0.08116 q -0.171594,0 -0.245797,-0.064928 -0.07188,-0.067246 -0.07188,-0.1739132 0,-0.1043479 0.07188,-0.1692755 0.0742,-0.067246 0.245797,-0.067246 h 0.556523 v 1.4144941 q 0,0.1507248 0.07188,0.2226089 0.0742,0.069565 0.224928,0.069565 0.143768,0 0.308406,-0.055652 0.166956,-0.057971 0.410435,-0.206377 V 5.3773894 h -0.171595 q -0.171594,0 -0.245797,-0.064928 -0.07188,-0.067246 -0.07188,-0.1739132 0,-0.1043479 0.07188,-0.1692755 0.0742,-0.067246 0.245797,-0.067246 z m 3.033046,1.2939143 h -1.950147 q 0.0742,0.1855074 0.262029,0.2991307 0.190145,0.1136233 0.512464,0.1136233 0.264348,0 0.70261,-0.1136233 0.180869,-0.046377 0.250435,-0.046377 0.09507,0 0.16,0.067246 0.06493,0.067246 0.06493,0.1692755 0,0.092754 -0.06957,0.1576813 -0.09275,0.085797 -0.452174,0.1646378 -0.359421,0.076522 -0.691015,0.076522 -0.570436,0 -0.913624,-0.3223191 -0.34087,-0.3223192 -0.34087,-0.7930442 0,-0.5008701 0.368696,-0.8139139 0.371014,-0.3153626 0.853334,-0.3153626 0.289855,0 0.531015,0.1020291 0.243478,0.1020291 0.361739,0.2202901 0.166957,0.1715943 0.275943,0.4243482 0.0742,0.176232 0.0742,0.4081163 z M 45.836563,5.7205782 Q 45.727578,5.51652 45.551346,5.4168098 45.375113,5.3147807 45.131635,5.3147807 q -0.24116,0 -0.417392,0.1020291 -0.176232,0.09971 -0.287536,0.3037684 z m 1.70203,-0.8185515 v 0.1600001 q 0.129856,-0.1113044 0.285218,-0.1669567 0.157681,-0.055652 0.34087,-0.055652 0.422029,0 0.667827,0.2620293 0.194782,0.2086958 0.194782,0.5472469 v 0.8834791 q 0.150725,0 0.222609,0.067246 0.07188,0.064928 0.07188,0.1715944 0,0.1043479 -0.0742,0.1715943 -0.07188,0.064928 -0.243478,0.064928 h -0.428986 q -0.171594,0 -0.245797,-0.064928 -0.07188,-0.067246 -0.07188,-0.1739132 0,-0.1043479 0.07188,-0.1692755 0.07188,-0.067246 0.222609,-0.067246 V 5.634781 q 0,-0.1553625 -0.08348,-0.2272466 -0.108985,-0.092754 -0.326957,-0.092754 -0.164637,0 -0.289855,0.064928 -0.122899,0.062609 -0.313044,0.2689858 v 0.8834791 q 0.183189,0 0.236522,0.034783 0.113624,0.069565 0.113624,0.2040582 0,0.1043479 -0.0742,0.1715943 -0.07188,0.064928 -0.243479,0.064928 h -0.54029 q -0.171595,0 -0.245798,-0.064928 -0.07188,-0.067246 -0.07188,-0.1739132 0,-0.1298552 0.111305,-0.2017393 0.05565,-0.034783 0.238841,-0.034783 V 5.3773894 q -0.150725,0 -0.222609,-0.067246 -0.07188,-0.067246 -0.07188,-0.1715944 0,-0.1043479 0.07188,-0.1692755 0.0742,-0.067246 0.245797,-0.067246 z m 4.071888,0.085797 q 0.0858,-0.08116 0.176232,-0.08116 0.102029,0 0.166957,0.074203 0.06725,0.071884 0.06725,0.2411597 v 0.3060872 q 0,0.1715944 -0.06725,0.2434785 -0.06493,0.071884 -0.171595,0.071884 -0.09739,0 -0.164638,-0.055652 -0.0487,-0.041739 -0.07652,-0.1692755 -0.02783,-0.1298552 -0.134493,-0.192464 -0.187827,-0.1113044 -0.480001,-0.1113044 -0.336232,0 -0.54029,0.1971016 -0.20174,0.1971017 -0.20174,0.4985512 0,0.2782612 0.194783,0.4405802 0.194783,0.1600001 0.646957,0.1600001 0.296812,0 0.484639,-0.06029 0.111304,-0.037102 0.211014,-0.1252175 0.09971,-0.090435 0.18087,-0.090435 0.09739,0 0.166957,0.071884 0.07188,0.071884 0.07188,0.1692756 0,0.1576813 -0.215653,0.2991307 -0.32,0.2110147 -0.936812,0.2110147 -0.554203,0 -0.86261,-0.2295654 -0.417391,-0.3084061 -0.417391,-0.8440588 0,-0.5078266 0.338551,-0.8394211 0.338551,-0.3339134 0.883479,-0.3339134 0.197102,0 0.366377,0.037102 0.169276,0.037101 0.313044,0.1113045 z m 3.302031,1.2081171 h -1.950146 q 0.0742,0.1855074 0.262029,0.2991307 0.190145,0.1136233 0.512464,0.1136233 0.264348,0 0.70261,-0.1136233 0.180869,-0.046377 0.250435,-0.046377 0.09507,0 0.16,0.067246 0.06493,0.067246 0.06493,0.1692755 0,0.092754 -0.06956,0.1576813 -0.09275,0.085797 -0.452174,0.1646378 -0.359421,0.076522 -0.691015,0.076522 -0.570436,0 -0.913625,-0.3223191 -0.340869,-0.3223192 -0.340869,-0.7930442 0,-0.5008701 0.368696,-0.8139139 0.371014,-0.3153626 0.853334,-0.3153626 0.289855,0 0.531015,0.1020291 0.243478,0.1020291 0.361739,0.2202901 0.166957,0.1715943 0.275943,0.4243482 0.0742,0.176232 0.0742,0.4081163 z M 54.386135,5.7205782 Q 54.27715,5.51652 54.100918,5.4168098 53.924685,5.3147807 53.681207,5.3147807 q -0.24116,0 -0.417392,0.1020291 -0.176232,0.09971 -0.287536,0.3037684 z"
     id="title"
     style="font-weight:bold;font-size:4.74899px;font-family:Monospace;-inkscape-font-specification:'Monospace, Bold';fill:#f0f6fc;stroke-width:0.395748"
     aria-label="git log --sequence" /><rect
     style="fill:#0d1117;fill-opacity:1;stroke:#3d444d;stroke-width:0.473176;stroke-dasharray:none;stroke-opacity:1"
     id="contributionContainer"
     width="194.26483"
     height="53.526825"
     x="4.0986328"
     y="24.236588"
     rx="4"
     ry="4" /><rect
     style="fill:#3d444d;fill-opacity:1;stroke:#f0f6fc;stroke-width:0.477323;stroke-dasharray:none;stroke-opacity:1"
     id="contributionContainer-7"
     width="47.428001"
     height="28.708422"
     x="150.90018"
     y="95.769402"
     rx="4"
     ry="4"
     inkscape:label="outputContainer" /><path
     d="m 15.25,102.00091 a 3.2500051,3.2500051 0 1 1 -6.50001,0 3.2500051,3.2500051 0 1 1 6.50001,0 z m -7.25,0 a 4.0000001,4.0000001 0 1 0 8,0 4.0000001,4.0000001 0 1 0 -8,0 z m 3.625,-2.12501 v 2.12501 c 0,0.125 0.0625,0.2422 0.16718,0.3125 l 1.5,1.00002 c 0.17187,0.11562 0.40468,0.0688 0.52032,-0.10469 0.11562,-0.17344 0.0688,-0.4047 -0.10469,-0.52032 L 12.375,101.80092 V 99.8759 c 0,-0.20781 -0.16718,-0.375 -0.375,-0.375 -0.20781,0 -0.37499,0.16719 -0.37499,0.375 z"
     id="clock"
     style="fill:#f0f6fc;fill-opacity:1;stroke:none;stroke-width:0.0156249;stroke-opacity:1" /><path
     d="m 26.142857,98 c 0.2375,0 0.428572,0.178333 0.428572,0.4 v 0.666666 h 2.857142 V 98.4 c 0,-0.221667 0.191072,-0.4 0.428572,-0.4 0.2375,0 0.428571,0.178333 0.428571,0.4 v 0.666666 h 0.571429 C 31.4875,99.066666 32,99.545 32,100.13334 v 4.80002 c 0,0.58834 -0.5125,1.06668 -1.142857,1.06668 H 25.142857 C 24.5125,106.00004 24,105.5217 24,104.93336 v -4.80002 c 0,-0.58834 0.5125,-1.066674 1.142857,-1.066674 h 0.571429 V 98.4 c 0,-0.221667 0.191071,-0.4 0.428571,-0.4 z m 0,1.86667 h -1 c -0.157143,0 -0.285714,0.119997 -0.285714,0.26667 v 0.8 h 6.285714 v -0.8 c 0,-0.146673 -0.128571,-0.26667 -0.285714,-0.26667 z m -1.285714,1.86668 v 3.20001 c 0,0.14667 0.128571,0.26667 0.285714,0.26667 h 5.714286 c 0.157143,0 0.285714,-0.12 0.285714,-0.26667 v -3.20001 z"
     id="calendar"
     style="fill:#f0f6fc;fill-opacity:1;stroke-width:0.0172516" /><g
     id="ruler"
     transform="matrix(0.63924063,-0.63924063,0.63924063,0.63924063,-48.016944,82.259068)"><path
       id="rect2"
       style="fill:none;stroke:#f0f6fc;stroke-width:0.85;stroke-linecap:round;paint-order:stroke fill markers"
       d="m 53.030711,85.546059 h 7.004001 c 0.3878,0 0.7,0.3122 0.7,0.7 v 2.337 c 0,0.3878 -0.3122,0.7 -0.7,0.7 h -7.004001 c -0.3878,0 -0.7,-0.3122 -0.7,-0.7 v -2.337 c 0,-0.3878 0.3122,-0.7 0.7,-0.7 z" /><path
       id="path10"
       style="fill:#f0f6fc;stroke-width:0.727724;stroke-linecap:round;paint-order:stroke fill markers"
       d="m 54.464751,86.885391 a 0.42500168,0.42500168 0 0 1 -0.425002,0.425002 0.42500168,0.42500168 0 0 1 -0.425002,-0.425002 0.42500168,0.42500168 0 0 1 0.425002,-0.425001 0.42500168,0.42500168 0 0 1 0.425002,0.425001 z" /><path
       id="circle11"
       style="fill:#f0f6fc;stroke-width:0.727724;stroke-linecap:round;paint-order:stroke fill markers"
       d="m 56.138491,87.414558 a 0.42500168,0.42500168 0 0 1 -0.425001,0.425002 0.42500168,0.42500168 0 0 1 -0.425002,-0.425002 0.42500168,0.42500168 0 0 1 0.425002,-0.425001 0.42500168,0.42500168 0 0 1 0.425001,0.425001 z" /><path
       id="circle12"
       style="fill:#f0f6fc;stroke-width:0.727724;stroke-linecap:round;paint-order:stroke fill markers"
       d="m 59.485972,87.414558 a 0.42500168,0.42500168 0 0 1 -0.425002,0.425002 0.42500168,0.42500168 0 0 1 -0.425001,-0.425002 0.42500168,0.42500168 0 0 1 0.425001,-0.425001 0.42500168,0.42500168 0 0 1 0.425002,0.425001 z" /><path
       id="circle13"
       style="fill:#f0f6fc;stroke-width:0.727724;stroke-linecap:round;paint-order:stroke fill markers"
       d="m 57.812232,86.885391 a 0.42500168,0.42500168 0 0 1 -0.425002,0.425002 0.42500168,0.42500168 0 0 1 -0.425002,-0.425002 0.42500168,0.42500168 0 0 1 0.425002,-0.425001 0.42500168,0.42500168 0 0 1 0.425002,0.425001 z" /><path
       id="rect13"
       style="fill:#f0f6fc;stroke-width:0.881133;stroke-linecap:round;paint-order:stroke fill markers"
       d="m 53.614746,85.416191 h 0.850005 v 1.469199 h -0.850005 z" /><path
       id="rect14"
       style="fill:#f0f6fc;stroke-width:0.993682;stroke-linecap:round;paint-order:stroke fill markers"
       d="m 55.288486,85.546059 h 0.850005 v 1.868498 h -0.850005 z" /><path
       id="rect15"
       style="fill:#f0f6fc;stroke-width:0.993682;stroke-linecap:round;paint-order:stroke fill markers"
       d="m 58.635967,85.546059 h 0.850005 v 1.868498 h -0.850005 z" /><path
       id="rect16"
       style="fill:#f0f6fc;stroke-width:0.878691;stroke-linecap:round;paint-order:stroke fill markers"
       d="m 56.962227,85.424324 h 0.850005 v 1.461069 h -0.850005 z" /></g><path
     style="fill:none;fill-opacity:1;stroke:#f0f6fc;stroke-width:0.85;stroke-linecap:round;stroke-linejoin:round;stroke-dasharray:none;stroke-opacity:1;paint-order:normal"
     d="m 54.425,98.425 h 7.15 L 59,101.42501 v 4.15002 l -2,-2.05001 v -2.10001 z"
     id="filter"
     sodipodi:nodetypes="ccccccc" /><path
     d="m 75.25,102.00001 a 3.25,3.25 0 1 0 -6.5,0 3.25,3.25 0 1 0 6.5,0 z m -7.25,0 a 4,4 0 1 1 8,0 4,4 0 1 1 -8,0 z m 5.229687,2.00939 C 72.995312,103.76565 72.5875,103.50002 72,103.50002 c -0.5875,0 -0.995313,0.26563 -1.229688,0.50938 -0.143749,0.15 -0.38125,0.15469 -0.529687,0.0109 -0.148437,-0.14375 -0.154688,-0.38125 -0.01094,-0.52969 0.345313,-0.35938 0.9375,-0.74063 1.770313,-0.74063 0.832812,0 1.425,0.38125 1.770312,0.74063 0.14375,0.15 0.139063,0.3875 -0.01094,0.52969 -0.15,0.14219 -0.3875,0.13906 -0.529688,-0.0109 z M 70.25,101.25001 a 0.5,0.5 0 1 1 1,0 0.5,0.5 0 1 1 -1,0 z m 3,-0.5 a 0.5000005,0.5000005 0 1 1 0,1 0.5000005,0.5000005 0 1 1 0,-1 z"
     id="sadface"
     style="fill:#f0f6fc;fill-opacity:1;stroke-width:0.015625" /><g
     id="ruler-8"
     transform="matrix(0.63924063,-0.63924063,0.63924063,0.63924063,35.125776,72.259071)" /><path
     d="M 193.88055,10 C 191.73672,10 190,11.736725 190,13.880555 c 0,1.71697 1.1109,3.167592 2.65324,3.681589 0.19403,0.03387 0.2667,-0.0822 0.2667,-0.18415 0,-0.09243 -0.005,-0.397933 -0.005,-0.722842 -0.97507,0.179564 -1.22731,-0.237772 -1.30492,-0.455788 -0.0437,-0.111831 -0.23283,-0.456142 -0.39758,-0.548217 -0.13582,-0.07302 -0.3302,-0.252236 -0.005,-0.257175 0.30551,-0.0049 0.52387,0.281164 0.59655,0.397933 0.34925,0.58667 0.90699,0.421922 1.1303,0.31997 0.0339,-0.252236 0.13582,-0.421923 0.24729,-0.518936 -0.8636,-0.09701 -1.76565,-0.4318 -1.76565,-1.916289 0,-0.421923 0.15028,-0.771173 0.39793,-1.042811 -0.0392,-0.09701 -0.17497,-0.494595 0.0388,-1.028347 0,0 0.32491,-0.1016 1.0668,0.397933 a 3.5958639,3.5958639 0 0 1 0.97014,-0.130881 c 0.3302,0 0.66005,0.04339 0.97014,0.130881 0.74224,-0.504472 1.06715,-0.397933 1.06715,-0.397933 0.21343,0.533752 0.078,0.931333 0.0392,1.028347 0.2473,0.271638 0.39758,0.616302 0.39758,1.042811 0,1.489427 -0.90699,1.819275 -1.77059,1.916289 0.14076,0.121355 0.26211,0.354188 0.26211,0.717902 0,0.518936 -0.005,0.936273 -0.005,1.067153 0,0.101953 0.0727,0.222956 0.2667,0.18415 1.53282,-0.513997 2.64372,-1.969205 2.64372,-3.681589 C 197.76061,11.736725 196.02424,10 193.88005,10 Z"
     id="octocat"
     style="fill:#f0f6fc;fill-opacity:1;stroke-width:0.352778" /><path
     d="m 176.30814,10.043848 c 0.18747,-0.08928 0.40149,-0.03928 0.54521,0.123206 l 0.9998,1.142771 C 177.94685,11.41696 178,11.561592 178,11.713367 c 0,0.151774 -0.0531,0.296406 -0.14685,0.403541 l -0.9998,1.142772 c -0.14372,0.164273 -0.35774,0.212484 -0.54521,0.123205 -0.18746,-0.08928 -0.30931,-0.294621 -0.30931,-0.524961 v -0.571386 h -0.4999 c -0.15779,0 -0.30619,0.08392 -0.39993,0.228554 l -0.50615,0.771371 -0.62487,-0.951714 0.33118,-0.50532 c 0.28276,-0.43211 0.72798,-0.685663 1.19977,-0.685663 h 0.4999 V 10.57238 c 0,-0.23034 0.12185,-0.439253 0.30931,-0.528532 z m -3.90236,4.67108 0.62488,0.951715 -0.33119,0.505319 c -0.28275,0.432111 -0.72798,0.685664 -1.19976,0.685664 h -0.99981 c -0.27651,0 -0.4999,-0.255339 -0.4999,-0.571386 0,-0.316048 0.22339,-0.571386 0.4999,-0.571386 h 0.99981 c 0.15778,0 0.30619,-0.08392 0.39992,-0.228555 z m 4.44601,3.117625 c -0.14373,0.164273 -0.35775,0.212484 -0.54521,0.123205 -0.18746,-0.08928 -0.30775,-0.296407 -0.30775,-0.526747 v -0.571385 h -0.4999 c -0.47179,0 -0.91701,-0.253553 -1.19977,-0.685664 l -2.39953,-3.65687 c -0.0937,-0.144632 -0.24214,-0.228554 -0.39992,-0.228554 h -0.99981 c -0.27651,0 -0.4999,-0.255338 -0.4999,-0.571386 0,-0.316048 0.22339,-0.571386 0.4999,-0.571386 h 0.99981 c 0.47178,0 0.91701,0.253553 1.19976,0.685663 l 2.39953,3.65687 c 0.0937,0.144632 0.24214,0.228555 0.39993,0.228555 h 0.4999 v -0.571386 c 0,-0.23034 0.12185,-0.439253 0.30931,-0.528532 0.18747,-0.08928 0.40149,-0.03928 0.54521,0.123205 l 0.9998,1.142772 C 177.94685,15.988047 178,16.13268 178,16.284454 c 0,0.151774 -0.0531,0.296406 -0.14685,0.403541 l -0.9998,1.142772 z"
     id="random1"
     style="fill:#f0f6fc;fill-opacity:1;stroke-width:0.0167015" /><g
     style="fill:#000000;stroke:#f0f6fc;stroke-opacity:1"
     id="coffee"
     transform="matrix(0.40002176,0,0,0.42106829,81.199956,96.736795)"><g
       id="SVGRepo_bgCarrier"
       stroke-width="0"
       style="stroke:#f0f6fc;stroke-opacity:1" /><g
       id="SVGRepo_tracerCarrier"
       stroke-linecap="round"
       stroke-linejoin="round"
       style="stroke:#f0f6fc;stroke-opacity:1" /><g
       id="SVGRepo_iconCarrier"
       style="stroke:#f0f6fc;stroke-opacity:1"><title
         id="title1" /><desc
         id="desc1" /><g
         fill="none"
         fill-rule="evenodd"
         id="Coffee-Mug"
         stroke="none"
         stroke-width="1"
         style="stroke:#f0f6fc;stroke-opacity:1"><g
           id="Group"
           stroke="#583624"
           stroke-width="2"
           transform="translate(4,4)"
           style="stroke:#f0f6fc;stroke-opacity:1"><path
             d="M 11,5 H 1 C 0.44771525,5 -0.05228475,5.2238576 -0.41421356,5.5857864 -0.77614238,5.9477152 -1,6.4477152 -1,7 v 4 c 0,1.656854 0.67157287,3.156854 1.75735931,4.242641 C 1.8431457,16.328427 3.3431458,17 5,17 h 2 c 1.6568543,0 3.156854,-0.671573 4.242641,-1.757359 C 12.328427,14.156854 13,12.656854 13,11 V 7 C 13,6.4477152 12.776142,5.9477152 12.414214,5.5857864 12.052285,5.2238576 11.552285,5 11,5 Z"
             id="Rectangle"
             style="stroke:#f0f6fc;stroke-opacity:1" /><path
             d="m 17,7 h -4 v 2 c 0,0.5522848 0.223858,1.052285 0.585786,1.414214 C 13.947715,10.776142 14.447715,11 15,11 15.552285,11 16.052285,10.776142 16.414214,10.414214 16.776142,10.052285 17,9.5522848 17,9 Z"
             id="path1-4"
             transform="rotate(-90,15,9)"
             style="stroke:#f0f6fc;stroke-opacity:1" /><line
             id="Path-5"
             stroke-linecap="round"
             x1="2"
             x2="2"
             y1="2"
             y2="0"
             style="stroke:#f0f6fc;stroke-opacity:1" /><line
             id="Path-5-Copy"
             stroke-linecap="round"
             x1="10"
             x2="10"
             y1="2"
             y2="0"
             style="stroke:#f0f6fc;stroke-opacity:1" /><line
             id="Path-5-Copy-2"
             stroke-linecap="round"
             x1="6"
             x2="6"
             y1="2"
             y2="0"
             style="stroke:#f0f6fc;stroke-opacity:1" /></g></g></g></g><g
     style="fill:#f0f6fc;fill-opacity:1;stroke:none;stroke-opacity:1"
     id="beer"
     transform="matrix(0.34782609,0,0,0.33333333,96,98)"><g
       id="SVGRepo_bgCarrier-3"
       stroke-width="0"
       style="fill:#f0f6fc;fill-opacity:1;stroke:none;stroke-opacity:1" /><g
       id="SVGRepo_tracerCarrier-2"
       stroke-linecap="round"
       stroke-linejoin="round"
       style="fill:#f0f6fc;fill-opacity:1;stroke:none;stroke-opacity:1" /><g
       id="SVGRepo_iconCarrier-2"
       style="fill:#f0f6fc;fill-opacity:1;stroke:none;stroke-opacity:1"><path
         fill-rule="evenodd"
         clip-rule="evenodd"
         d="M 5.94999,6 H 17.1341 C 17.2006,5.88484 17.2903,5.78262 17.3994,5.70062 17.7755,5.41814 18,4.97866 18,4.5 18,3.67157 17.3284,3 16.5,3 16.0934,3 15.7148,3.16122 15.4342,3.44449 14.9436,3.93987 14.1093,3.79369 13.8163,3.161 13.4911,2.45871 12.7874,2 12,2 11.2406,2 10.5579,2.42639 10.2179,3.09086 9.9233,3.66653 9.1681,3.81547 8.67701,3.39475 8.39199,3.15055 7.96799,3 7.5,3 6.7736,3 6.18664,3.36112 6.03637,3.78943 5.82067,4.40423 5.08406,4.65187 4.54077,4.29222 4.26157,4.1074 3.89567,4 3.5,4 2.62866,4 2,4.50293 2,5 V 6.5 C 2,7.32843 2.67157,8 3.5,8 4.21646,8 4.82945,7.49333 4.96998,6.80107 5.06459,6.33497 5.47439,6 5.94999,6 Z M 17,8 H 6.66332 C 6.09707,9.19384 4.88159,10 3.5,10 3.33024,10 3.1633,9.98791 3,9.96456 V 22 H 17 Z M 1,8.94949 C 0.38141,8.31822 0,7.45365 0,6.5 V 5 C 0,3.28793 1.60991,2 3.5,2 3.91773,2 4.32603,2.06259 4.70875,2.18228 5.36045,1.44586 6.38868,1 7.5,1 8.04317,1 8.56979,1.106 9.0441,1.30452 9.787,0.489943 10.85,0 12,0 13.1691,0 14.2465,0.506365 14.9897,1.34191 15.4537,1.11979 15.9678,1 16.5,1 18.433,1 20,2.567 20,4.5 20,5.43248 19.632,6.30511 19,6.94967 V 9 h 1 c 1.6569,0 3,1.3431 3,3 v 5 c 0,1.6569 -1.3431,3 -3,3 h -1 v 2 c 0,1.1046 -0.8954,2 -2,2 H 3 C 1.89543,24 1,23.1046 1,22 Z M 19,11 v 7 h 1 c 0.5523,0 1,-0.4477 1,-1 v -5 c 0,-0.5523 -0.4477,-1 -1,-1 z M 5,12 c 0,-0.5523 0.44772,-1 1,-1 0.55228,0 1,0.4477 1,1 v 6 C 7,18.5523 6.55228,19 6,19 5.44772,19 5,18.5523 5,18 Z m 4,0 c 0,-0.5523 0.4477,-1 1,-1 0.5523,0 1,0.4477 1,1 v 6 c 0,0.5523 -0.4477,1 -1,1 -0.5523,0 -1,-0.4477 -1,-1 z m 4,0 c 0,-0.5523 0.4477,-1 1,-1 0.5523,0 1,0.4477 1,1 v 6 c 0,0.5523 -0.4477,1 -1,1 -0.5523,0 -1,-0.4477 -1,-1 z"
         fill="#758ca3"
         id="path1-16"
         style="fill:#f0f6fc;fill-opacity:1;stroke:none;stroke-opacity:1" /></g></g><path
     style="font-weight:bold;font-size:3.175px;font-family:Monospace;-inkscape-font-specification:'Monospace, Bold';text-align:center;text-anchor:middle;fill:#f0f6fc;stroke-width:0.5;stroke-linecap:round;stroke-linejoin:round"
     d="m 187.65244,100.92087 v 0.63717 q 0,0.10232 0.0419,0.13488 0.0651,0.0512 0.23255,0.0512 0.24339,0 0.44958,-0.10387 0.0791,-0.0403 0.12402,-0.0403 0.062,0 0.10697,0.0465 0.0465,0.0465 0.0465,0.11317 0,0.062 -0.0496,0.10697 -0.076,0.0729 -0.30075,0.13488 -0.22324,0.0605 -0.37672,0.0605 -0.29611,0 -0.44494,-0.12713 -0.14728,-0.12867 -0.14728,-0.31471 v -0.69918 h -0.11472 q -0.11472,0 -0.16433,-0.0434 -0.0481,-0.045 -0.0481,-0.11627 0,-0.0698 0.0481,-0.11317 0.0496,-0.045 0.16433,-0.045 h 0.11472 v -0.2868 q 0,-0.11472 0.0434,-0.16278 0.045,-0.0496 0.11627,-0.0496 0.0698,0 0.11318,0.0496 0.045,0.0481 0.045,0.16278 v 0.2868 h 0.58757 q 0.11472,0 0.16278,0.045 0.0496,0.0434 0.0496,0.11472 0,0.0698 -0.0496,0.11472 -0.0481,0.0434 -0.16278,0.0434 z m 1.91772,-0.31781 v 0.19844 q 0.19998,-0.14418 0.31471,-0.19224 0.11627,-0.0481 0.21704,-0.0481 0.15503,0 0.30075,0.11472 0.0992,0.0775 0.0992,0.15813 0,0.0682 -0.0481,0.11628 -0.0465,0.0465 -0.11317,0.0465 -0.0589,0 -0.12402,-0.0589 -0.0651,-0.0589 -0.11627,-0.0589 -0.0667,0 -0.19999,0.0837 -0.13178,0.0837 -0.33021,0.25115 v 0.47904 h 0.45268 q 0.11472,0 0.16278,0.045 0.0496,0.0434 0.0496,0.11472 0,0.0698 -0.0496,0.11472 -0.0481,0.0434 -0.16278,0.0434 h -0.95963 q -0.11472,0 -0.16433,-0.0434 -0.0481,-0.045 -0.0481,-0.11627 0,-0.0698 0.0481,-0.11317 0.0496,-0.045 0.16433,-0.045 h 0.18914 v -0.77205 h -0.11472 q -0.11473,0 -0.16434,-0.0434 -0.048,-0.045 -0.048,-0.11627 0,-0.0698 0.048,-0.11317 0.0496,-0.045 0.16434,-0.045 z m 2.08514,-0.603063 v 0.336413 h -0.37827 v -0.336413 z m 0.0434,0.603063 v 1.08986 h 0.38137 q 0.11472,0 0.16278,0.045 0.0496,0.0434 0.0496,0.11472 0,0.0698 -0.0496,0.11472 -0.0481,0.0434 -0.16278,0.0434 h -1.08055 q -0.11472,0 -0.16433,-0.0434 -0.0481,-0.045 -0.0481,-0.11627 0,-0.0698 0.0481,-0.11317 0.0496,-0.045 0.16433,-0.045 h 0.38137 v -0.77205 h -0.2558 q -0.11317,0 -0.16278,-0.0434 -0.0496,-0.045 -0.0496,-0.11627 0,-0.0698 0.0481,-0.11317 0.0496,-0.045 0.16433,-0.045 z m 2.09755,0.0946 v -0.0946 h 0.37207 q 0.11472,0 0.16278,0.045 0.0496,0.0434 0.0496,0.11472 0,0.0698 -0.0496,0.11472 -0.0481,0.0434 -0.16278,0.0434 h -0.0543 v 1.15652 q 0,0.16743 -0.0713,0.29145 -0.0698,0.12558 -0.21549,0.2155 -0.14573,0.0899 -0.32866,0.0899 h -0.35967 q -0.11472,0 -0.16433,-0.045 -0.0481,-0.0434 -0.0481,-0.11317 0,-0.0713 0.0481,-0.11627 0.0496,-0.0434 0.16433,-0.0434 h 0.35037 q 0.14572,0 0.22634,-0.0791 0.0806,-0.0791 0.0806,-0.19999 v -0.15503 q -0.10542,0.0682 -0.2155,0.10232 -0.10852,0.0341 -0.22324,0.0341 -0.32401,0 -0.5426,-0.21549 -0.21859,-0.21705 -0.21859,-0.53486 0,-0.31936 0.21859,-0.53485 0.21859,-0.21704 0.5426,-0.21704 0.12093,0 0.22945,0.0357 0.11007,0.0341 0.20929,0.10542 z m -0.002,0.60926 q 0,-0.17518 -0.13023,-0.30385 -0.12867,-0.12868 -0.31006,-0.12868 -0.18138,0 -0.31161,0.12868 -0.12867,0.12867 -0.12867,0.30385 0,0.17674 0.12867,0.30541 0.13023,0.12713 0.31161,0.12713 0.18139,0 0.31006,-0.12713 0.13023,-0.12867 0.13023,-0.30541 z"
     id="text18"
     aria-label="trig"
     inkscape:label="trig" /><path
     style="font-weight:bold;font-size:3.175px;font-family:Monospace;-inkscape-font-specification:'Monospace, Bold';text-align:center;text-anchor:middle;fill:#f0f6fc;stroke-width:0.5;stroke-linecap:round;stroke-linejoin:round"
     d="m 172.0002,100.69763 v -0.0946 h 0.37207 q 0.11472,0 0.16278,0.045 0.0496,0.0434 0.0496,0.11472 0,0.0698 -0.0496,0.11472 -0.0481,0.0434 -0.16278,0.0434 h -0.0543 v 1.15652 q 0,0.16743 -0.0713,0.29145 -0.0698,0.12558 -0.21549,0.2155 -0.14573,0.0899 -0.32866,0.0899 h -0.35967 q -0.11472,0 -0.16433,-0.045 -0.0481,-0.0434 -0.0481,-0.11317 0,-0.0713 0.0481,-0.11627 0.0496,-0.0434 0.16433,-0.0434 h 0.35036 q 0.14573,0 0.22635,-0.0791 0.0806,-0.0791 0.0806,-0.19999 v -0.15503 q -0.10542,0.0682 -0.21549,0.10232 -0.10852,0.0341 -0.22324,0.0341 -0.32401,0 -0.5426,-0.21549 -0.2186,-0.21705 -0.2186,-0.53486 0,-0.31936 0.2186,-0.53485 0.21859,-0.21704 0.5426,-0.21704 0.12092,0 0.22944,0.0357 0.11007,0.0341 0.20929,0.10542 z m -0.002,0.60926 q 0,-0.17518 -0.13022,-0.30385 -0.12868,-0.12868 -0.31006,-0.12868 -0.18139,0 -0.31161,0.12868 -0.12868,0.12867 -0.12868,0.30385 0,0.17674 0.12868,0.30541 0.13022,0.12713 0.31161,0.12713 0.18138,0 0.31006,-0.12713 0.13022,-0.12867 0.13022,-0.30541 z m 1.8433,0.70384 v -0.0744 q -0.11937,0.0636 -0.26355,0.0946 -0.14418,0.0326 -0.262,0.0326 -0.2558,0 -0.41548,-0.13488 -0.15968,-0.13642 -0.15968,-0.30076 0,-0.19998 0.20309,-0.37052 0.20464,-0.17208 0.56431,-0.17208 0.14417,0 0.33331,0.031 v -0.076 q 0,-0.0713 -0.062,-0.11627 -0.0605,-0.045 -0.23255,-0.045 -0.14107,0 -0.36587,0.0558 -0.0837,0.0202 -0.13022,0.0202 -0.0636,0 -0.10852,-0.045 -0.0434,-0.0465 -0.0434,-0.11782 0,-0.0403 0.0155,-0.0698 0.0155,-0.0294 0.0434,-0.0465 0.0279,-0.0186 0.11627,-0.0434 0.11783,-0.0326 0.2403,-0.0512 0.12247,-0.0202 0.22169,-0.0202 0.29611,0 0.45889,0.12868 0.16433,0.12712 0.16433,0.34881 v 0.65423 h 0.0543 q 0.11472,0 0.16278,0.045 0.0496,0.0434 0.0496,0.11472 0,0.0698 -0.0496,0.11472 -0.0481,0.0434 -0.16278,0.0434 z m 0,-0.56896 q -0.19069,-0.0372 -0.35192,-0.0372 -0.19378,0 -0.33331,0.0946 -0.0868,0.0605 -0.0868,0.12247 0,0.045 0.0419,0.0729 0.0775,0.0512 0.21239,0.0512 0.11472,0 0.2589,-0.045 0.14573,-0.045 0.2589,-0.12247 z m 1.54099,-0.5209 v 0.63717 q 0,0.10232 0.0419,0.13488 0.0651,0.0512 0.23254,0.0512 0.2434,0 0.44959,-0.10387 0.0791,-0.0403 0.12402,-0.0403 0.062,0 0.10697,0.0465 0.0465,0.0465 0.0465,0.11317 0,0.062 -0.0496,0.10697 -0.076,0.0729 -0.30076,0.13488 -0.22324,0.0605 -0.37672,0.0605 -0.2961,0 -0.44493,-0.12713 -0.14728,-0.12867 -0.14728,-0.31471 v -0.69918 h -0.11472 q -0.11472,0 -0.16433,-0.0434 -0.0481,-0.045 -0.0481,-0.11627 0,-0.0698 0.0481,-0.11317 0.0496,-0.045 0.16433,-0.045 h 0.11472 v -0.2868 q 0,-0.11472 0.0434,-0.16278 0.045,-0.0496 0.11627,-0.0496 0.0698,0 0.11317,0.0496 0.045,0.0481 0.045,0.16278 v 0.2868 h 0.58756 q 0.11472,0 0.16278,0.045 0.0496,0.0434 0.0496,0.11472 0,0.0698 -0.0496,0.11472 -0.0481,0.0434 -0.16278,0.0434 z m 2.78123,0.54725 h -1.3038 q 0.0496,0.12403 0.17518,0.19999 0.12713,0.076 0.34262,0.076 0.17673,0 0.46974,-0.076 0.12092,-0.031 0.16743,-0.031 0.0636,0 0.10697,0.045 0.0434,0.045 0.0434,0.11318 0,0.062 -0.0465,0.10542 -0.062,0.0574 -0.30231,0.11007 -0.24029,0.0512 -0.46199,0.0512 -0.38137,0 -0.61081,-0.21549 -0.2279,-0.21549 -0.2279,-0.5302 0,-0.33487 0.2465,-0.54416 0.24805,-0.21084 0.57051,-0.21084 0.19379,0 0.35502,0.0682 0.16278,0.0682 0.24184,0.14727 0.11162,0.11473 0.18449,0.28371 0.0496,0.11782 0.0496,0.27285 z m -0.35192,-0.31781 q -0.0729,-0.13642 -0.19069,-0.20308 -0.11782,-0.0682 -0.2806,-0.0682 -0.16123,0 -0.27905,0.0682 -0.11782,0.0667 -0.19224,0.20308 z"
     id="text21"
     aria-label="gate"
     inkscape:label="gate" /><path
     style="font-weight:bold;font-size:3.175px;font-family:Monospace;-inkscape-font-specification:'Monospace, Bold';text-align:center;text-anchor:middle;fill:#f0f6fc;stroke-width:0.5;stroke-linecap:round;stroke-linejoin:round"
     d="m 157.97112,100.66042 q 0.0574,-0.0543 0.11782,-0.0543 0.0682,0 0.11162,0.0496 0.045,0.0481 0.045,0.16123 v 0.20464 q 0,0.11472 -0.045,0.16278 -0.0434,0.0481 -0.11472,0.0481 -0.0651,0 -0.11007,-0.0372 -0.0326,-0.0279 -0.0512,-0.11317 -0.0186,-0.0868 -0.0899,-0.12867 -0.12557,-0.0744 -0.32091,-0.0744 -0.22479,0 -0.36122,0.13178 -0.13488,0.13177 -0.13488,0.33331 0,0.18604 0.13023,0.29456 0.13022,0.10697 0.43253,0.10697 0.19844,0 0.32401,-0.0403 0.0744,-0.0248 0.14108,-0.0837 0.0667,-0.0605 0.12092,-0.0605 0.0651,0 0.11162,0.0481 0.0481,0.0481 0.0481,0.11317 0,0.10542 -0.14418,0.19999 -0.21394,0.14108 -0.62631,0.14108 -0.37052,0 -0.57671,-0.15348 -0.27906,-0.20619 -0.27906,-0.56431 0,-0.33951 0.22635,-0.5612 0.22634,-0.22325 0.59066,-0.22325 0.13177,0 0.24495,0.0248 0.11317,0.0248 0.20929,0.0744 z m 1.41231,0.96428 0.34262,-0.70383 q -0.12713,0 -0.16278,-0.0217 -0.0775,-0.0481 -0.0775,-0.13798 0,-0.0698 0.0481,-0.11317 0.0496,-0.045 0.16433,-0.045 h 0.43563 q 0.11473,0 0.16278,0.045 0.0496,0.0434 0.0496,0.11472 0,0.0698 -0.0496,0.11472 -0.048,0.0434 -0.16278,0.0434 h -0.0527 l -0.53175,1.08986 h -0.33176 l -0.53175,-1.08986 h -0.045 q -0.11472,0 -0.16433,-0.0434 -0.0481,-0.045 -0.0481,-0.11627 0,-0.0698 0.0481,-0.11317 0.0496,-0.045 0.16433,-0.045 h 0.42633 q 0.11317,0 0.16123,0.045 0.0496,0.0434 0.0496,0.11472 0,0.0884 -0.0744,0.13488 -0.0372,0.0232 -0.16588,0.0232 z"
     id="text22"
     aria-label="cv"
     inkscape:label="cv" /></svg>
