<?xml version="1.0" encoding="UTF-8" standalone="no"?>
<svg
   width="203.2mm"
   height="128.5mm"
   viewBox="0 0 203.2 128.5"
   version="1.1"
   id="svg43"
   sodipodi:docname="Seqhub.svg"
   inkscape:version="1.4.3 (0d15f75, 2025-12-25)"
   xmlns:inkscape="http://www.inkscape.org/namespaces/inkscape"
   xmlns:sodipodi="http://sodipodi.sourceforge.net/DTD/sodipodi-0.dtd"
   xmlns="http://www.w3.org/2000/svg"
   xmlns:svg="http://www.w3.org/2000/svg">
  <sodipodi:namedview
     id="namedview43"
     pagecolor="#ffffff"
     bordercolor="#000000"
     borderopacity="0.25"
     inkscape:showpageshadow="2"
     inkscape:pageopacity="0.0"
     inkscape:pagecheckerboard="0"
     inkscape:deskcolor="#d1d1d1"
     inkscape:document-units="mm"
     inkscape:lockguides="false"
     inkscape:zoom="2"
     inkscape:cx="390"
     inkscape:cy="178"
     inkscape:window-width="3840"
     inkscape:window-height="2054"
     inkscape:window-x="-11"
     inkscape:window-y="-11"
     inkscape:window-maximized="1"
     inkscape:current-layer="svg43" />
  <rect
     style="fill:#0d1117;fill-opacity:1"
     id="background"
     width="203.2"
     height="128.5"
     x="0"
     y="-2.1684043e-19" />
  <path
     d="M 5.7947847,5.0434761 V 4.9020267 H 6.351307 q 0.1715943,0 0.2434785,0.067246 0.074203,0.064928 0.074203,0.1715944 0,0.1043479 -0.074203,0.1715943 -0.071884,0.064928 -0.2434785,0.064928 h -0.08116 v 1.7298568 q 0,0.250435 -0.1066668,0.4359424 Q 6.0591328,7.7310149 5.8411615,7.8655078 5.6231903,8.0000007 5.3495669,8.0000007 H 4.8115953 q -0.1715943,0 -0.2457973,-0.067246 -0.071884,-0.064928 -0.071884,-0.1692755 0,-0.1066668 0.071884,-0.1739132 0.074203,-0.064928 0.2457973,-0.064928 h 0.5240585 q 0.2179712,0 0.3385511,-0.118261 0.1205798,-0.118261 0.1205798,-0.2991307 V 6.8753619 Q 5.6371034,6.977391 5.4724655,7.0284055 q -0.162319,0.051015 -0.3339133,0.051015 -0.4846382,0 -0.811595,-0.3223192 -0.3269568,-0.324638 -0.3269568,-0.8000008 0,-0.4776816 0.3269568,-0.8000007 0.3269568,-0.324638 0.811595,-0.324638 0.1808697,0 0.3431887,0.053333 0.1646378,0.051014 0.3130438,0.1576813 z m -0.00232,0.9113052 q 0,-0.2620292 -0.1947828,-0.4544932 -0.1924639,-0.1924639 -0.4637685,-0.1924639 -0.2713046,0 -0.4660874,0.1924639 -0.192464,0.192464 -0.192464,0.4544932 0,0.2643481 0.192464,0.456812 0.1947828,0.1901451 0.4660874,0.1901451 0.2713046,0 0.4637685,-0.1901451 0.1947828,-0.1924639 0.1947828,-0.456812 z M 8.2921784,3.9999968 V 4.5031857 H 7.7263807 V 3.9999968 Z m 0.064928,0.9020299 v 1.6301465 h 0.5704353 q 0.1715944,0 0.2434785,0.067246 0.074203,0.064928 0.074203,0.1715944 0,0.1043479 -0.074203,0.1715943 -0.071884,0.064928 -0.2434785,0.064928 H 7.3113079 q -0.1715944,0 -0.2457974,-0.064928 -0.071884,-0.067246 -0.071884,-0.1739132 0,-0.1043479 0.071884,-0.1692755 0.074203,-0.067246 0.2457974,-0.067246 H 7.8817432 V 5.3773894 H 7.4991341 q -0.1692755,0 -0.2434784,-0.064928 -0.074203,-0.067246 -0.074203,-0.1739132 0,-0.1043479 0.071884,-0.1692755 0.074203,-0.067246 0.2457973,-0.067246 z M 10.8545,5.3773894 v 0.9530444 q 0,0.1530437 0.06261,0.2017394 0.09739,0.076522 0.347827,0.076522 0.364058,0 0.672464,-0.1553625 0.118261,-0.06029 0.185508,-0.06029 0.09275,0 0.16,0.069565 0.06957,0.069565 0.06957,0.1692755 0,0.092754 -0.0742,0.1600002 -0.113623,0.1089856 -0.449855,0.2017393 -0.333914,0.090435 -0.563479,0.090435 -0.442899,0 -0.665508,-0.1901451 -0.22029,-0.1924639 -0.22029,-0.4707251 V 5.3773894 h -0.171594 q -0.171595,0 -0.2457978,-0.064928 -0.071884,-0.067246 -0.071884,-0.1739132 0,-0.1043479 0.071884,-0.1692755 0.074203,-0.067246 0.2457978,-0.067246 h 0.171594 V 4.4730408 q 0,-0.1715944 0.06493,-0.2434785 0.06725,-0.074203 0.173913,-0.074203 0.104348,0 0.169275,0.074203 0.06725,0.071884 0.06725,0.2434785 v 0.4289859 h 0.878841 q 0.171594,0 0.243479,0.067246 0.0742,0.064928 0.0742,0.1715944 0,0.1043479 -0.0742,0.1715943 -0.07188,0.064928 -0.243479,0.064928 z m 6.054498,-1.3773926 v 2.5321764 h 0.570436 q 0.171594,0 0.243478,0.067246 0.0742,0.064928 0.0742,0.1715944 0,0.1043479 -0.0742,0.1715943 -0.07188,0.064928 -0.243478,0.064928 H 15.8632 q -0.171594,0 -0.245797,-0.064928 -0.07188,-0.067246 -0.07188,-0.1739132 0,-0.1043479 0.07188,-0.1692755 0.0742,-0.067246 0.245797,-0.067246 h 0.570435 V 4.4753596 h -0.382609 q -0.169275,0 -0.243478,-0.064928 -0.0742,-0.067246 -0.0742,-0.1739132 0,-0.1043479 0.07188,-0.1692755 0.0742,-0.067247 0.245797,-0.067247 z m 3.84696,1.9942048 q 0,0.2736235 -0.153044,0.531015 -0.150724,0.2550727 -0.452174,0.4081164 -0.299131,0.1507247 -0.626088,0.1507247 -0.324638,0 -0.621449,-0.1484059 Q 18.606391,6.784927 18.451028,6.5275355 18.295666,6.2701439 18.295666,5.9895639 q 0,-0.2852176 0.157681,-0.5588411 0.157681,-0.2759423 0.452174,-0.4336236 0.296812,-0.1576813 0.619131,-0.1576813 0.324638,0 0.623769,0.162319 0.30145,0.1600002 0.454493,0.4336236 0.153044,0.2713046 0.153044,0.5588411 z m -0.475363,0.00232 q 0,-0.2295655 -0.164638,-0.4220294 -0.224927,-0.2597104 -0.591305,-0.2597104 -0.322319,0 -0.537971,0.206377 -0.215652,0.206377 -0.215652,0.4776816 0,0.2226089 0.217971,0.4173917 0.217971,0.192464 0.535652,0.192464 0.320001,0 0.537972,-0.192464 0.217971,-0.1947828 0.217971,-0.4197105 z M 22.893932,5.0434761 V 4.9020267 h 0.556523 q 0.171594,0 0.243478,0.067246 0.0742,0.064928 0.0742,0.1715944 0,0.1043479 -0.0742,0.1715943 -0.07188,0.064928 -0.243478,0.064928 h -0.08116 v 1.7298568 q 0,0.250435 -0.106667,0.4359424 -0.104347,0.1878263 -0.322319,0.3223192 -0.217971,0.1344929 -0.491594,0.1344929 h -0.537972 q -0.171594,0 -0.245797,-0.067246 -0.07188,-0.064928 -0.07188,-0.1692755 0,-0.1066668 0.07188,-0.1739132 0.0742,-0.064928 0.245797,-0.064928 h 0.524059 q 0.217971,0 0.338551,-0.118261 0.120579,-0.118261 0.120579,-0.2991307 V 6.8753619 q -0.157681,0.1020291 -0.322319,0.1530436 -0.162319,0.051015 -0.333913,0.051015 -0.484638,0 -0.811595,-0.3223192 -0.326957,-0.324638 -0.326957,-0.8000008 0,-0.4776816 0.326957,-0.8000007 0.326957,-0.324638 0.811595,-0.324638 0.18087,0 0.343189,0.053333 0.164638,0.051014 0.313043,0.1576813 z m -0.0023,0.9113052 q 0,-0.2620292 -0.194783,-0.4544932 -0.192464,-0.1924639 -0.463769,-0.1924639 -0.271304,0 -0.466087,0.1924639 -0.192464,0.192464 -0.192464,0.4544932 0,0.2643481 0.192464,0.456812 0.194783,0.1901451 0.466087,0.1901451 0.271305,0 0.463769,-0.1901451 0.194783,-0.1924639 0.194783,-0.456812 z m 6.175077,-0.078841 H 27.081762 V 5.442317 h 1.984929 z m 2.849857,0 H 29.931619 V 5.442317 h 1.984929 z m 2.367538,-0.4173917 q -0.115942,-0.071884 -0.243478,-0.1066667 -0.127536,-0.037102 -0.266667,-0.037102 -0.275942,0 -0.438261,0.090435 -0.07188,0.03942 -0.07188,0.085797 0,0.053333 0.09739,0.104348 0.0742,0.037102 0.331595,0.071884 0.473043,0.064928 0.658551,0.1298552 0.243478,0.085797 0.375652,0.2550727 0.132174,0.1692755 0.132174,0.3571018 0,0.2550727 -0.224927,0.4266671 -0.322319,0.2481161 -0.837103,0.2481161 -0.206377,0 -0.382609,-0.037101 -0.173913,-0.034783 -0.32,-0.104348 -0.03478,0.030145 -0.0742,0.046377 -0.03942,0.016232 -0.08116,0.016232 -0.111305,0 -0.178551,-0.071884 -0.06493,-0.074203 -0.06493,-0.2457974 V 6.5275355 q 0,-0.1715944 0.06493,-0.2434785 0.06725,-0.074203 0.173913,-0.074203 0.0858,0 0.143768,0.048696 0.05797,0.046377 0.09043,0.162319 0.108986,0.092754 0.262029,0.1414494 0.153044,0.046377 0.352464,0.046377 0.326957,0 0.507827,-0.1020291 0.0858,-0.051015 0.0858,-0.1066668 0,-0.092754 -0.122899,-0.1530436 -0.122898,-0.06029 -0.507826,-0.1020291 -0.572754,-0.06029 -0.765218,-0.2318843 -0.192464,-0.1692755 -0.192464,-0.4173917 0,-0.2550727 0.215652,-0.4243482 0.292174,-0.2318843 0.765218,-0.2318843 0.164638,0 0.315363,0.032464 0.153044,0.030145 0.292174,0.095073 0.04406,-0.032464 0.08116,-0.048696 0.03942,-0.016232 0.07188,-0.016232 0.09739,0 0.162319,0.074203 0.06493,0.071884 0.06493,0.2434785 v 0.1159422 q 0,0.1553624 -0.0371,0.2110147 -0.0742,0.1066667 -0.201739,0.1066667 -0.0858,0 -0.150725,-0.053333 -0.06493,-0.053333 -0.08348,-0.1414495 z M 37.813367,6.195941 H 35.86322 q 0.0742,0.1855074 0.262029,0.2991307 0.190145,0.1136233 0.512464,0.1136233 0.264348,0 0.70261,-0.1136233 0.180869,-0.046377 0.250435,-0.046377 0.09507,0 0.16,0.067246 0.06493,0.067246 0.06493,0.1692755 0,0.092754 -0.06957,0.1576813 -0.09275,0.085797 -0.452174,0.1646378 -0.359421,0.076522 -0.691015,0.076522 -0.570436,0 -0.913624,-0.3223191 -0.34087,-0.3223192 -0.34087,-0.7930442 0,-0.5008701 0.368696,-0.8139139 0.371015,-0.3153626 0.853334,-0.3153626 0.289855,0 0.531015,0.1020291 0.243478,0.1020291 0.361739,0.2202901 0.166957,0.1715943 0.275943,0.4243482 0.0742,0.176232 0.0742,0.4081163 z M 37.286989,5.7205782 Q 37.178004,5.51652 37.001772,5.4168098 36.82554,5.3147807 36.582061,5.3147807 q -0.24116,0 -0.417392,0.1020291 -0.176232,0.09971 -0.287536,0.3037684 z m 3.285802,-0.3431888 v 2.1472485 h 0.08348 q 0.169276,0 0.24116,0.064928 0.0742,0.067246 0.0742,0.1739132 0,0.1043479 -0.07188,0.1692755 -0.07188,0.067246 -0.243479,0.067246 h -0.84174 q -0.171594,0 -0.245797,-0.067246 -0.07188,-0.064928 -0.07188,-0.1692755 0,-0.1066668 0.07188,-0.1739132 0.0742,-0.064928 0.245797,-0.064928 h 0.282899 V 6.7455067 q -0.173913,0.1066668 -0.354783,0.1600002 -0.178551,0.053333 -0.361739,0.053333 -0.424348,0 -0.7629,-0.2550727 -0.405797,-0.3060872 -0.405797,-0.7768123 0,-0.4266671 0.343189,-0.7559428 0.343188,-0.3315945 0.832464,-0.3315945 0.187827,0 0.364059,0.055652 0.178551,0.055652 0.345507,0.1692756 v -0.162319 h 0.558841 q 0.169276,0 0.24116,0.067246 0.0742,0.064928 0.0742,0.1715944 0,0.1043479 -0.07188,0.1715943 -0.07188,0.064928 -0.243479,0.064928 z M 40.097428,5.929274 q 0,-0.09971 -0.07884,-0.2527538 Q 39.939747,5.5211577 39.775109,5.4191286 39.610471,5.3147807 39.3925,5.3147807 q -0.357102,0 -0.563479,0.2666669 -0.141449,0.1831886 -0.141449,0.3524641 0,0.192464 0.201739,0.3710149 0.204058,0.1785509 0.503189,0.1785509 0.30145,0 0.503189,-0.1785509 0.201739,-0.1785509 0.201739,-0.3756526 z m 3.232467,-1.0272473 v 1.6301465 q 0.150724,0 0.222609,0.067246 0.07188,0.067246 0.07188,0.1715944 0,0.1043479 -0.0742,0.1715943 -0.07188,0.064928 -0.243479,0.064928 H 42.854532 V 6.8985503 q -0.204058,0.092754 -0.389566,0.1391306 -0.185507,0.046377 -0.352464,0.046377 -0.234203,0 -0.405797,-0.097391 Q 41.53511,6.8869561 41.4354,6.7130429 41.363516,6.5878254 41.363516,6.3999991 V 5.3773894 h -0.08116 q -0.171594,0 -0.245797,-0.064928 -0.07188,-0.067246 -0.07188,-0.1739132 0,-0.1043479 0.07188,-0.1692755 0.0742,-0.067246 0.245797,-0.067246 h 0.556523 v 1.4144941 q 0,0.1507248 0.07188,0.2226089 0.0742,0.069565 0.224928,0.069565 0.143768,0 0.308406,-0.055652 0.166956,-0.057971 0.410435,-0.206377 V 5.3773894 h -0.171595 q -0.171594,0 -0.245797,-0.064928 -0.07188,-0.067246 -0.07188,-0.1739132 0,-0.1043479 0.07188,-0.1692755 0.0742,-0.067246 0.245797,-0.067246 z m 3.033046,1.2939143 h -1.950147 q 0.0742,0.1855074 0.262029,0.2991307 0.190145,0.1136233 0.512464,0.1136233 0.264348,0 0.70261,-0.1136233 0.180869,-0.046377 0.250435,-0.046377 0.09507,0 0.16,0.067246 0.06493,0.067246 0.06493,0.1692755 0,0.092754 -0.06957,0.1576813 -0.09275,0.085797 -0.452174,0.1646378 -0.359421,0.076522 -0.691015,0.076522 -0.570436,0 -0.913624,-0.3223191 -0.34087,-0.3223192 -0.34087,-0.7930442 0,-0.5008701 0.368696,-0.8139139 0.371014,-0.3153626 0.853334,-0.3153626 0.289855,0 0.531015,0.1020291 0.243478,0.1020291 0.361739,0.2202901 0.166957,0.1715943 0.275943,0.4243482 0.0742,0.176232 0.0742,0.4081163 z M 45.836563,5.7205782 Q 45.727578,5.51652 45.551346,5.4168098 45.375113,5.3147807 45.131635,5.3147807 q -0.24116,0 -0.417392,0.1020291 -0.176232,0.09971 -0.287536,0.3037684 z m 1.70203,-0.8185515 v 0.1600001 q 0.129856,-0.1113044 0.285218,-0.1669567 0.157681,-0.055652 0.34087,-0.055652 0.422029,0 0.667827,0.2620293 0.194782,0.2086958 0.194782,0.5472469 v 0.8834791 q 0.150725,0 0.222609,0.067246 0.07188,0.064928 0.07188,0.1715944 0,0.1043479 -0.0742,0.1715943 -0.07188,0.064928 -0.243478,0.064928 h -0.428986 q -0.171594,0 -0.245797,-0.064928 -0.07188,-0.067246 -0.07188,-0.1739132 0,-0.1043479 0.07188,-0.1692755 0.07188,-0.067246 0.222609,-0.067246 V 5.634781 q 0,-0.1553625 -0.08348,-0.2272466 -0.108985,-0.092754 -0.326957,-0.092754 -0.164637,0 -0.289855,0.064928 -0.122899,0.062609 -0.313044,0.2689858 v 0.8834791 q 0.183189,0 0.236522,0.034783 0.113624,0.069565 0.113624,0.2040582 0,0.1043479 -0.0742,0.1715943 -0.07188,0.064928 -0.243479,0.064928 h -0.54029 q -0.171595,0 -0.245798,-0.064928 -0.07188,-0.067246 -0.07188,-0.1739132 0,-0.1298552 0.111305,-0.2017393 0.05565,-0.034783 0.238841,-0.034783 V 5.3773894 q -0.150725,0 -0.222609,-0.067246 -0.07188,-0.067246 -0.07188,-0.1715944 0,-0.1043479 0.07188,-0.1692755 0.0742,-0.067246 0.245797,-0.067246 z m 4.071888,0.085797 q 0.0858,-0.08116 0.176232,-0.08116 0.102029,0 0.166957,0.074203 0.06725,0.071884 0.06725,0.2411597 v 0.3060872 q 0,0.1715944 -0.06725,0.2434785 -0.06493,0.071884 -0.171595,0.071884 -0.09739,0 -0.164638,-0.055652 -0.0487,-0.041739 -0.07652,-0.1692755 -0.02783,-0.1298552 -0.134493,-0.192464 -0.187827,-0.1113044 -0.480001,-0.1113044 -0.336232,0 -0.54029,0.1971016 -0.20174,0.1971017 -0.20174,0.4985512 0,0.2782612 0.194783,0.4405802 0.194783,0.1600001 0.646957,0.1600001 0.296812,0 0.484639,-0.06029 0.111304,-0.037102 0.211014,-0.1252175 0.09971,-0.090435 0.18087,-0.090435 0.09739,0 0.166957,0.071884 0.07188,0.071884 0.07188,0.1692756 0,0.1576813 -0.215653,0.2991307 -0.32,0.2110147 -0.936812,0.2110147 -0.554203,0 -0.86261,-0.2295654 -0.417391,-0.3084061 -0.417391,-0.8440588 0,-0.5078266 0.338551,-0.8394211 0.338551,-0.3339134 0.883479,-0.3339134 0.197102,0 0.366377,0.037102 0.169276,0.037101 0.313044,0.1113045 z m 3.302031,1.2081171 h -1.950146 q 0.0742,0.1855074 0.262029,0.2991307 0.190145,0.1136233 0.512464,0.1136233 0.264348,0 0.70261,-0.1136233 0.180869,-0.046377 0.250435,-0.046377 0.09507,0 0.16,0.067246 0.06493,0.067246 0.06493,0.1692755 0,0.092754 -0.06956,0.1576813 -0.09275,0.085797 -0.452174,0.1646378 -0.359421,0.076522 -0.691015,0.076522 -0.570436,0 -0.913625,-0.3223191 -0.340869,-0.3223192 -0.340869,-0.7930442 0,-0.5008701 0.368696,-0.8139139 0.371014,-0.3153626 0.853334,-0.3153626 0.289855,0 0.531015,0.1020291 0.243478,0.1020291 0.361739,0.2202901 0.166957,0.1715943 0.275943,0.4243482 0.0742,0.176232 0.0742,0.4081163 z M 54.386135,5.7205782 Q 54.27715,5.51652 54.100918,5.4168098 53.924685,5.3147807 53.681207,5.3147807 q -0.24116,0 -0.417392,0.1020291 -0.176232,0.09971 -0.287536,0.3037684 z"
     id="title"
     style="font-weight:bold;font-size:4.74899px;font-family:Monospace;-inkscape-font-specification:'Monospace, Bold';fill:#f0f6fc;stroke-width:0.395748"
     aria-label="git log --sequence" />
  <rect
     style="fill:#0d1117;fill-opacity:1;stroke:#3d444d;stroke-width:0.264583;stroke-dasharray:none;stroke-opacity:1"
     id="contributionContainer"
     width="194.198"
     height="83.347984"
     x="4.1322913"
     y="20.132292"
     rx="4"
     ry="4" />
  <g
     id="redPill"
     transform="translate(-17.03081)">
    <path
       id="path58"
       style="fill:#ff1117;fill-opacity:1;stroke:#3d444d;stroke-width:0.889;stroke-linecap:round;stroke-linejoin:miter;stroke-dasharray:none;stroke-opacity:1;paint-order:stroke fill markers"
       d="m 74.54983,6.5688703 a 1.7778742,1.7778742 0 0 0 -1.777765,1.777765 v 3.5555327 a 1.7778742,1.7778742 0 0 0 1.777766,1.777765 1.7778742,1.7778742 0 0 0 1.777765,-1.777765 V 8.3466355 A 1.7778742,1.7778742 0 0 0 74.54983,6.5688703 Z"
       transform="rotate(45,130.08921,157.44214)" />
    <path
       id="rect60"
       style="fill:#3d444d;stroke:#3d444d;stroke-width:0;stroke-linecap:round;paint-order:stroke fill markers"
       d="m 72.348831,9.9239197 h 4.402 V 10.36842 h -4.402 z"
       transform="rotate(45,130.08921,157.44214)" />
    <path
       style="fill:#c20000;fill-opacity:1;stroke:#3d444d;stroke-width:0;stroke-linecap:round;stroke-linejoin:miter;stroke-dasharray:none;stroke-opacity:1;paint-order:stroke fill markers"
       d="m 281.4829,51.695511 c -1.96525,-0.0905 -3.75771,-1.002775 -4.97792,-2.533507 -0.8126,-1.019398 -1.31168,-2.265956 -1.43016,-3.57216 -0.0267,-0.2946 -0.0278,-0.431783 -0.0279,-3.419922 l -6e-5,-2.982422 h 6.71485 6.71484 l -3e-5,3.021484 c -4e-5,3.026283 -8.3e-4,3.122744 -0.0278,3.408203 -0.19239,2.033207 -1.30099,3.871249 -3.00728,4.986 -0.96436,0.630034 -2.04635,0.995302 -3.19922,1.080019 -0.19915,0.01463 -0.57607,0.02074 -0.75929,0.01231 z"
       id="path80"
       transform="matrix(0.18708867,0.18708867,-0.18708867,0.18708867,149.43065,-45.873231)" />
    <path
       style="fill:#ff1117;fill-opacity:1;stroke:#3d444d;stroke-width:0;stroke-linecap:round;stroke-linejoin:miter;stroke-dasharray:none;stroke-opacity:1;paint-order:stroke fill markers"
       d="m 196.17854,10.896072 c -0.3423,-0.0043 -0.6772,0.120588 -0.96295,0.302914 -0.22752,0.148077 -0.4006,0.361945 -0.59844,0.54494 -0.26246,0.265591 -0.53667,0.520797 -0.78365,0.800979 -0.0595,0.08516 0.0476,0.154491 0.0955,0.212378 0.72148,0.740454 1.45439,1.469785 2.19056,2.195612 0.0839,0.06856 0.14983,0.169811 0.25302,0.209539 0.10011,-0.0021 0.15795,-0.104794 0.23053,-0.160389 0.37032,-0.367691 0.74542,-0.731385 1.09862,-1.115683 0.37124,-0.462728 0.49158,-1.11172 0.31688,-1.678297 -0.17699,-0.603765 -0.68327,-1.093247 -1.29038,-1.255881 -0.1779,-0.05517 -0.36507,-0.05824 -0.54966,-0.05611 z"
       id="path86" />
    <path
       style="fill:#c20000;fill-opacity:1;stroke:#3d444d;stroke-width:0;stroke-linecap:round;stroke-linejoin:miter;stroke-dasharray:none;stroke-opacity:1;paint-order:stroke fill markers"
       d="m 193.54165,12.86587 c -0.10863,0.04588 -0.18154,0.150041 -0.27081,0.224588 -0.35573,0.349759 -0.7134,0.699021 -1.04278,1.07398 -0.1903,0.267741 -0.32336,0.585972 -0.34522,0.915757 -0.006,0.238673 -0.0148,0.483589 0.068,0.711859 0.18288,0.609708 0.69482,1.112462 1.31627,1.262512 0.19765,0.05762 0.40427,0.06865 0.60854,0.05021 0.35542,-0.01904 0.7035,-0.156594 0.98265,-0.375936 0.42374,-0.401023 0.84024,-0.810164 1.24522,-1.230145 0.0585,-0.04978 0.0239,-0.132032 -0.0307,-0.169023 -0.76581,-0.776785 -1.53489,-1.550515 -2.31441,-2.313555 -0.0683,-0.0502 -0.12322,-0.151087 -0.21682,-0.150252 z"
       id="path87" />
  </g>
  <g
     id="bluePill"
     transform="rotate(45,130.0893,157.44237)">
    <path
       id="path81"
       style="fill:#1117ff;fill-opacity:1;stroke:#3d444d;stroke-width:0.889;stroke-linecap:round;stroke-linejoin:miter;stroke-dasharray:none;stroke-opacity:1;paint-order:stroke fill markers"
       d="m 74.54983,6.5688703 a 1.7778742,1.7778742 0 0 0 -1.777765,1.777765 v 3.5555327 a 1.7778742,1.7778742 0 0 0 1.777766,1.777765 1.7778742,1.7778742 0 0 0 1.777765,-1.777765 V 8.3466355 A 1.7778742,1.7778742 0 0 0 74.54983,6.5688703 Z" />
    <path
       id="path82"
       style="fill:#3d444d;stroke:#3d444d;stroke-width:0;stroke-linecap:round;paint-order:stroke fill markers"
       d="m 72.348831,9.9239197 h 4.402 V 10.36842 h -4.402 z" />
    <path
       style="fill:#0000c2;fill-opacity:1;stroke:#3d444d;stroke-width:0;stroke-linecap:round;stroke-linejoin:miter;stroke-dasharray:none;stroke-opacity:1;paint-order:stroke fill markers"
       d="m 281.4829,51.695511 c -1.96525,-0.0905 -3.75771,-1.002775 -4.97792,-2.533507 -0.8126,-1.019398 -1.31168,-2.265956 -1.43016,-3.57216 -0.0267,-0.2946 -0.0278,-0.431783 -0.0279,-3.419922 l -6e-5,-2.982422 h 6.71485 6.71484 l -3e-5,3.021484 c -4e-5,3.026283 -8.3e-4,3.122744 -0.0278,3.408203 -0.19239,2.033207 -1.30099,3.871249 -3.00728,4.986 -0.96436,0.630034 -2.04635,0.995302 -3.19922,1.080019 -0.19915,0.01463 -0.57607,0.02074 -0.75929,0.01231 z"
       id="path83"
       transform="scale(0.26458333)" />
    <path
       style="fill:#1117ff;fill-opacity:1;stroke:#3d444d;stroke-width:0;stroke-linecap:round;stroke-linejoin:miter;stroke-dasharray:none;stroke-opacity:1;paint-order:stroke fill markers"
       d="m 179.14402,10.889598 c -0.40673,0.01246 -0.80816,0.166241 -1.11962,0.428041 -0.36766,0.351512 -0.72579,0.712904 -1.08357,1.074424 -0.0527,0.05774 -0.11414,0.108961 -0.15928,0.172878 -0.0265,0.04958 0.0104,0.09746 0.0464,0.129463 0.56873,0.581432 1.14681,1.153632 1.72139,1.729266 0.24652,0.243442 0.48803,0.492191 0.74062,0.729362 0.0394,0.04241 0.10729,0.03078 0.14221,-0.0113 0.27176,-0.257981 0.53266,-0.52718 0.79806,-0.791659 0.14665,-0.150701 0.29938,-0.296015 0.43845,-0.453794 0.26138,-0.335513 0.4133,-0.760807 0.39759,-1.187909 1.9e-4,-0.527407 -0.25247,-1.04311 -0.65416,-1.38166 -0.32616,-0.277755 -0.75141,-0.438601 -1.18054,-0.437031 -0.0292,-4.5e-4 -0.0584,-5.03e-4 -0.0875,-8.1e-5 z"
       id="path84"
       transform="rotate(-45,121.57399,136.8846)" />
    <path
       style="fill:#0000c2;fill-opacity:1;stroke:#3d444d;stroke-width:0;stroke-linecap:round;stroke-linejoin:miter;stroke-dasharray:none;stroke-opacity:1;paint-order:stroke fill markers"
       d="m 176.50207,12.851231 c -0.0608,0.03084 -0.10231,0.08929 -0.15343,0.133228 -0.36258,0.357454 -0.72345,0.716838 -1.07526,1.084925 -0.13937,0.162203 -0.24653,0.351976 -0.31989,0.552681 -0.0682,0.195639 -0.11406,0.402059 -0.10736,0.610265 -0.003,0.135447 0.002,0.271716 0.0341,0.403958 0.0801,0.388198 0.289,0.747383 0.58651,1.009285 0.34368,0.311731 0.81064,0.480073 1.27361,0.469125 0.43198,-0.0111 0.86198,-0.173779 1.18427,-0.463173 0.38792,-0.380972 0.77273,-0.765204 1.15287,-1.153944 0.045,-0.03567 0.0412,-0.107184 -0.004,-0.14115 -0.57846,-0.590057 -1.1653,-1.171849 -1.75001,-1.755697 -0.24854,-0.245416 -0.49347,-0.494656 -0.74641,-0.735514 -0.0216,-0.01566 -0.0494,-0.02009 -0.0751,-0.01399 z"
       id="path85"
       transform="rotate(-45,121.57399,136.8846)" />
  </g>
</svg>
